Coordinates
version=1
nRows=30
nColumns=33
inDegrees=yes

Units are S.I. units (second, meters, Newtons, ...)
Angles are in degrees.

endheader
time	ground_thorax_rot_x	ground_thorax_rot_y	ground_thorax_rot_z	ground_thorax_tx	ground_thorax_ty	ground_thorax_tz	clav_prot_r	clav_elev_r	scapula_abduction_r	scapula_elevation_r	scapula_upward_rot_r	scapula_winging_r	shoulder_elv_r	plane_of_elev_r	axial_rot_r	elbow_flexion_r	pro_sup_r	wrist_flex_r	wrist_dev_r	clav_prot_l	clav_elev_l	scapula_abduction_l	scapula_elevation_l	scapula_upward_rot_l	scapula_winging_l	shoulder_elv_l	plane_of_elev_l	axial_rot_l	elbow_flexion_l	pro_sup_l	wrist_flex_l	wrist_dev_l	
5.6500	-41.535434	-9.507832	13.990065	-173.827821	824.008642	-1.457625	9.276253	-45.000000	43.510204	-45.000000	-30.924823	2062.412188	-2986.992869	147.993810	-109.427738	1465.302010	174.507628	11.168462	4.038491	16.957837	40.029811	-41.860437	-45.000000	-40.574605	-1715.529932	-1008.289167	27.043136	-2.947046	1808.264759	-337.232126	8.214297	-22.131466	
5.6600	-41.568723	-9.311723	13.768725	-170.119512	823.568748	-1.304346	9.231200	-45.000000	43.799590	-45.000000	-29.819033	2062.617706	-2987.167241	148.061597	-109.162037	1465.202849	176.199405	11.025041	3.943701	17.011940	40.257223	-42.094304	-45.000000	-39.776070	-1715.624899	-1008.475371	27.101313	-2.711922	1808.271119	-337.830888	8.541199	-22.005626	
5.6700	-41.609387	-9.118756	13.531787	-166.288280	823.006197	-1.153348	9.179892	-45.000000	44.080801	-45.000000	-28.712659	2062.835724	-2987.360761	148.136452	-108.853355	1465.091121	177.900920	10.881176	3.846237	17.074865	40.491638	-42.345949	-44.999999	-38.964361	-1715.727945	-1008.673318	27.160908	-2.449518	1808.264859	-338.307661	8.855913	-21.869376	
5.6800	-41.658892	-8.930111	13.278529	-162.342995	822.318057	-1.007223	9.118646	-45.000000	44.346092	-45.000000	-27.625279	2063.073800	-2987.570108	148.215402	-108.508064	1464.966179	179.594929	10.737668	3.752207	17.141649	40.732314	-42.612124	-44.999999	-38.146391	-1715.836006	-1008.882838	27.227973	-2.157233	1808.242527	-338.652512	9.159684	-21.727130	
5.6900	-41.718118	-8.743794	13.011680	-158.293894	821.506096	-0.868134	9.042297	-45.000000	44.576030	-45.000000	-26.577871	2063.339261	-2987.790967	148.294426	-108.136314	1464.828703	181.263242	10.596042	3.663477	17.210181	40.976920	-42.896672	-44.999997	-37.330115	-1715.947633	-1009.103853	27.302708	-1.831302	1808.203552	-338.856196	9.450616	-21.582687	
5.7000	-41.789678	-8.557956	12.731252	-154.153157	820.576087	-0.738150	8.944064	-45.000000	44.758678	-45.000000	-25.588688	2063.641765	-2988.019859	148.372598	-107.750535	1464.680130	182.888091	10.456859	3.578878	17.282588	41.226004	-43.198042	-44.999995	-36.517387	-1716.061590	-1009.333996	27.385942	-1.471299	1808.146932	-338.907822	9.725734	-21.440620	
5.7100	-41.872592	-8.375010	12.441214	-149.934265	819.537411	-0.618975	8.825795	-45.000000	44.885191	-45.000000	-24.669976	2063.983049	-2988.254763	148.447966	-107.359401	1464.522689	184.457539	10.321371	3.498071	17.356976	41.477415	-43.514984	-44.999992	-35.717335	-1716.177986	-1009.572496	27.479114	-1.072773	1808.069658	-338.803730	9.983162	-21.303740	
5.7200	-41.966995	-8.192624	12.141607	-145.652268	818.402533	-0.511763	8.684862	-45.000000	44.959436	-45.000000	-23.815036	2064.359045	-2988.495337	148.521283	-106.962710	1464.357880	185.978619	10.189057	3.411832	17.445721	41.731688	-43.842400	-44.999986	-34.928530	-1716.306813	-1009.809647	27.576113	-0.617588	1807.971238	-338.548581	10.217251	-21.173696	
5.7300	-42.069318	-8.023209	11.839416	-141.322820	817.186186	-0.416911	8.538652	-45.000000	44.991479	-45.000000	-23.036742	2064.763227	-2988.741557	148.588945	-106.564953	1464.186875	187.451370	10.061234	3.332901	17.524086	41.982186	-44.163718	-44.999974	-34.157995	-1716.442854	-1010.048798	27.690116	-0.117910	1807.843751	-338.146308	10.435767	-21.053663	
5.7400	-42.174853	-7.874505	11.536491	-136.962618	815.904481	-0.334206	8.387979	-45.000000	45.000000	-45.000000	-22.321533	2065.192002	-2988.990053	148.658293	-106.161253	1464.011343	188.888407	9.935950	3.254140	17.595413	42.230053	-44.452780	-44.999954	-33.385896	-1716.600317	-1010.283634	27.810554	0.438709	1807.691276	-337.609022	10.634248	-20.945492	
5.7500	-42.278584	-7.754379	11.231244	-132.588175	814.573959	-0.262931	8.243732	-45.000000	45.000000	-45.000000	-21.664400	2065.639102	-2989.240751	148.727706	-105.745541	1463.828501	190.302915	9.812693	3.181037	17.645493	42.472190	-44.684009	-44.999917	-32.603811	-1716.786206	-1010.513921	27.943268	1.055533	1807.508465	-336.946048	10.817012	-20.850956	
5.7600	-42.379312	-7.663779	10.923423	-128.215256	813.210206	-0.202597	8.099542	-45.000000	45.000000	-45.000000	-21.050853	2066.102710	-2989.492282	148.802885	-105.304161	1463.639512	191.723554	9.687804	3.104185	17.685827	42.709259	-44.846943	-44.999851	-31.797844	-1717.014083	-1010.728471	28.073783	1.761907	1807.298414	-336.170678	10.979065	-20.770473	
5.7700	-42.479029	-7.598747	10.609387	-123.857084	811.826704	-0.153598	7.962663	-45.000000	45.000000	-45.000000	-20.476598	2066.578575	-2989.748313	148.882285	-104.833440	1463.442678	193.173214	9.559483	3.030962	17.708578	42.936459	-44.944369	-44.999733	-30.977711	-1717.277456	-1010.925670	28.216108	2.566806	1807.051038	-335.289243	11.126176	-20.704434	
5.7800	-42.578729	-7.552792	10.288332	-119.523812	810.433612	-0.117898	7.826448	-45.000000	45.000000	-45.000000	-19.929627	2067.065087	-2990.009873	148.971516	-104.334165	1463.239496	194.672248	9.424324	2.954150	17.719918	43.158062	-44.988401	-44.999521	-30.141548	-1717.575537	-1011.101301	28.362277	3.499610	1806.766103	-334.313307	11.258666	-20.652423	
5.7900	-42.682841	-7.502495	9.940910	-115.224264	809.038863	-0.098046	7.687595	-45.000000	45.000000	-45.000000	-19.387365	2067.551804	-2990.287245	149.060865	-103.818987	1463.020505	196.236861	9.279747	2.869743	17.723417	43.377988	-45.000000	-44.999142	-29.294123	-1717.901368	-1011.250787	28.520174	4.588323	1806.437546	-333.247434	11.381559	-20.614218	
5.8000	-42.790200	-7.445333	9.574891	-110.968953	807.649227	-0.095852	7.545886	-45.000000	45.000000	-45.000000	-18.853209	2068.035337	-2990.580230	149.151315	-103.306327	1462.784392	197.864332	9.124639	2.777401	17.716430	43.597418	-45.000000	-44.998464	-28.450672	-1718.243854	-1011.376560	28.689664	5.845654	1806.063508	-332.103352	11.498785	-20.588020	
5.8100	-42.899535	-7.379782	9.195648	-106.774571	806.273300	-0.110228	7.408382	-45.000000	45.000000	-45.000000	-18.329655	2068.512790	-2990.886047	149.244951	-102.823429	1462.531396	199.534356	8.959732	2.683546	17.698488	43.811657	-45.000000	-44.997248	-27.633949	-1718.589225	-1011.483985	28.881721	7.247767	1805.642952	-330.900156	11.611232	-20.569761	
5.8200	-43.003209	-7.324606	8.828418	-102.664934	804.922179	-0.136255	7.283343	-45.000000	45.000000	-45.000000	-17.844165	2068.989559	-2991.190302	149.348881	-102.384455	1462.266081	201.211557	8.788927	2.594801	17.666677	44.014904	-45.000000	-44.995071	-26.867254	-1718.928537	-1011.582617	29.092640	8.747543	1805.183057	-329.676764	11.716853	-20.551958	
5.8300	-43.101622	-7.275348	8.468533	-98.671385	803.610980	-0.164717	7.169148	-45.000000	45.000000	-45.000000	-17.388716	2069.461625	-2991.489561	149.459390	-101.980721	1461.994030	202.882273	8.615119	2.513715	17.633005	44.204638	-45.000000	-44.991169	-26.155411	-1719.263017	-1011.667931	29.311112	10.286977	1804.699887	-328.474669	11.807013	-20.526904	
5.8400	-43.192091	-7.242111	8.126661	-94.826142	802.355999	-0.184283	7.073076	-45.000000	45.000000	-45.000000	-16.982500	2069.929201	-2991.774428	149.571949	-101.576794	1461.718270	204.548893	8.442762	2.455665	17.587406	44.374018	-45.000000	-44.984188	-25.511411	-1719.585450	-1011.742553	29.529980	11.799193	1804.205689	-327.335233	11.880447	-20.486750	
5.8500	-43.277200	-7.226001	7.801042	-91.157199	801.173039	-0.184254	6.996556	-45.000000	45.000000	-45.000000	-16.618281	2070.383459	-2992.043949	149.682866	-101.132583	1461.450198	206.238910	8.273926	2.434135	17.529250	44.520606	-45.000000	-44.971659	-24.932604	-1719.889117	-1011.806093	29.740768	13.226579	1803.713294	-326.289472	11.933923	-20.425660	
5.8600	-43.356075	-7.220224	7.484157	-87.681233	800.073970	-0.157384	6.934703	-45.000000	45.000000	-45.000000	-16.289969	2070.821722	-2992.294488	149.787069	-100.611736	1461.181817	208.003509	8.108033	2.454868	17.452467	44.645978	-45.000000	-44.949280	-24.392282	-1720.171574	-1011.858209	29.932035	14.549018	1803.230890	-325.350376	11.968834	-20.340918	
5.8700	-43.432252	-7.215864	7.162352	-84.405370	799.067646	-0.100361	6.881088	-45.000000	45.000000	-45.000000	-15.980842	2071.237573	-2992.528074	149.877555	-99.988507	1460.911649	209.902126	7.943185	2.520532	17.349733	44.745213	-45.000000	-44.909014	-23.859070	-1720.426889	-1011.896293	30.098260	15.765548	1802.760208	-324.507844	11.985810	-20.233188	
5.8800	-43.500742	-7.203738	6.827272	-81.328417	798.159787	-0.013746	6.822953	-45.000000	45.000000	-45.000000	-15.674630	2071.634173	-2992.738015	149.957679	-99.255524	1460.622224	212.002909	7.773931	2.625671	17.225307	44.820492	-45.000000	-44.837387	-23.299472	-1720.657023	-1011.913138	30.229880	16.913371	1802.302131	-323.737740	11.982676	-20.105108	
5.8900	-43.558119	-7.190057	6.485560	-78.446474	797.355104	0.099246	6.758840	-45.000000	45.000000	-45.000000	-15.368080	2072.008745	-2992.920879	150.031526	-98.432338	1460.312545	214.364996	7.596431	2.776549	17.079803	44.863398	-45.000000	-44.724119	-22.713415	-1720.853676	-1011.907314	30.333027	18.009631	1801.850021	-323.011577	11.959311	-19.960523	
5.9000	-43.595330	-7.186338	6.158377	-75.755317	796.657443	0.233678	6.705378	-45.000000	45.000000	-45.000000	-15.097105	2072.353667	-2993.070632	150.087352	-97.554163	1459.974789	216.983713	7.410660	2.961588	16.908838	44.868910	-45.000000	-44.558554	-22.126085	-1721.022491	-1011.865617	30.405242	19.057439	1801.415833	-322.315210	11.910359	-19.800732	
5.9100	-43.615032	-7.201153	5.856238	-73.253334	796.070471	0.384257	6.670569	-45.000000	45.000000	-45.000000	-14.873523	2072.666441	-2993.191773	150.124403	-96.675701	1459.617982	219.809932	7.220753	3.178782	16.723130	44.839679	-45.000000	-44.355028	-21.576167	-1721.170226	-1011.792453	30.454670	20.023565	1801.005900	-321.641802	11.836551	-19.631146	
5.9200	-43.625119	-7.191392	5.532514	-70.940616	795.596208	0.545509	6.615698	-45.000000	45.000000	-45.000000	-14.604408	2072.961644	-2993.295759	150.170607	-95.849086	1459.230468	222.932422	7.016070	3.426869	16.541587	44.805704	-45.000000	-44.136593	-21.001865	-1721.307134	-1011.702101	30.476098	20.910906	1800.628435	-320.965072	11.737240	-19.462248	
5.9300	-43.631583	-7.182191	5.217061	-68.818707	795.234366	0.712355	6.561724	-45.000000	45.000000	-45.000000	-14.329718	2073.233185	-2993.390430	150.223699	-95.118367	1458.823779	226.278270	6.805480	3.706800	16.379188	44.769094	-45.000000	-43.932018	-20.474321	-1721.441671	-1011.607361	30.482580	21.679740	1800.289675	-320.295127	11.616919	-19.298079	
5.9400	-43.638205	-7.175450	4.916446	-66.888216	794.981130	0.880441	6.511382	-45.000000	45.000000	-45.000000	-14.056210	2073.485265	-2993.478519	150.286703	-94.517069	1458.406196	229.766463	6.592486	4.007389	16.242573	44.734287	-45.000000	-43.759112	-20.001334	-1721.581476	-1011.519119	30.473227	22.308470	1799.997237	-319.645084	11.480904	-19.141864	
